<svg width="16" height="16" viewBox="0 0 16 16" fill="none" xmlns="http://www.w3.org/2000/svg">
<path d="M11.6112 2.59545C10.5423 1.88122 9.28558 1.5 8 1.5C6.27609 1.5 4.62279 2.18482 3.40381 3.40381C2.18482 4.62279 1.5 6.27609 1.5 8C1.5 9.28558 1.88122 10.5423 2.59545 11.6112C3.30968 12.6801 4.32484 13.5132 5.51256 14.0052C6.70028 14.4972 8.00721 14.6259 9.26809 14.3751C10.529 14.1243 11.6872 13.5052 12.5962 12.5962C13.5052 11.6872 14.1243 10.529 14.3751 9.26809C14.6259 8.00721 14.4972 6.70028 14.0052 5.51256C13.5132 4.32484 12.6801 3.30968 11.6112 2.59545Z" stroke="#FFA438"/>
<path d="M8.06885 7.57586V7.79197L8.25601 7.90003L10.738 9.33294C10.738 9.33294 10.738 9.33295 10.738 9.33295C10.776 9.35492 10.8038 9.39111 10.8151 9.43355C10.8265 9.47599 10.8206 9.52121 10.7986 9.55927C10.7766 9.59731 10.7404 9.62508 10.698 9.63645C10.6556 9.64782 10.6103 9.64187 10.5723 9.6199L8.08194 8.18213C8.07514 8.17789 8.06866 8.17316 8.06256 8.16796L7.98175 8.09914L7.87683 8.08299C7.83807 8.07702 7.80272 8.05739 7.77717 8.02765C7.75165 7.99795 7.73758 7.96012 7.73747 7.92098V5.04134C7.73747 4.9974 7.75493 4.95526 7.786 4.92418C7.81707 4.89311 7.85922 4.87566 7.90316 4.87566C7.9471 4.87566 7.98925 4.89311 8.02032 4.92418C8.05139 4.95526 8.06885 4.9974 8.06885 5.04134V7.57586Z" stroke="#FFA438" stroke-width="0.748626"/>
</svg>
